<svg width="17" height="14" viewBox="0 0 17 14" fill="none" xmlns="http://www.w3.org/2000/svg">
<path fill-rule="evenodd" clip-rule="evenodd" d="M7.78009 4.13557C7.78009 2.11782 9.41534 0.4823 11.432 0.4823C12.6792 0.4823 13.665 1.10693 14.2983 1.99713L14.22 1.80274C14.938 1.662 15.6126 1.39945 16.2216 1.03811C15.9861 1.77432 15.4867 2.3928 14.8358 2.78256C15.4739 2.70609 16.0808 2.53693 16.6459 2.28656L16.6445 2.28859C16.2229 2.91992 15.6884 3.47411 15.0726 3.91936L15.0441 3.84851C15.0776 4.06512 15.0947 4.28357 15.0947 4.50097C15.0947 8.88153 11.7581 13.9695 5.62553 13.9695C3.74676 13.9695 1.99706 13.4191 0.524121 12.4741C0.291705 12.3249 0.22418 12.0157 0.373301 11.7832C0.379347 11.7738 0.385657 11.7647 0.392214 11.7558C0.47024 11.5805 0.65548 11.4685 0.856007 11.4921C2.04012 11.6316 3.22734 11.4692 4.25687 10.9704C3.2292 10.5859 2.42445 9.74522 2.08821 8.69623C2.03976 8.54508 2.07452 8.37959 2.17969 8.26071C2.20492 8.23219 2.23332 8.20736 2.26406 8.1865C1.4683 7.52567 0.961738 6.52891 0.961738 5.41372V5.37313C0.961738 5.21367 1.04612 5.06612 1.18356 4.98527C1.26763 4.9358 1.36388 4.91582 1.45786 4.92549C1.15859 4.39977 0.987451 3.7913 0.987451 3.14351C0.987451 2.57949 0.992443 1.8971 1.37253 1.28443C1.45691 1.14841 1.60202 1.07304 1.75105 1.07161C1.93089 1.03009 2.12691 1.09013 2.25143 1.24283C3.60014 2.89673 5.55798 4.03052 7.78383 4.30169C7.78135 4.24664 7.78009 4.19126 7.78009 4.13557ZM5.62553 12.9695C4.53699 12.9695 3.49765 12.7632 2.54238 12.3881C3.69085 12.2509 4.80015 11.8373 5.73917 11.1014C5.88909 10.9839 5.9488 10.7847 5.88824 10.6041C5.82768 10.4236 5.65998 10.3006 5.46953 10.2973C4.53892 10.2809 3.72195 9.79275 3.24872 9.06176C3.52677 9.05132 3.79757 9.00953 4.05791 8.93914C4.25949 8.88463 4.39708 8.6986 4.3902 8.4899C4.38331 8.28119 4.23375 8.10464 4.02901 8.06354C3.00925 7.85882 2.19743 7.07964 1.94416 6.07865C2.22526 6.15962 2.52039 6.20742 2.82479 6.21738C3.0256 6.22395 3.20643 6.09661 3.26792 5.90533C3.3294 5.71405 3.25663 5.50519 3.0896 5.39352C2.36434 4.90866 1.88745 4.08082 1.88745 3.14351C1.88745 2.85691 1.89284 2.60807 1.92453 2.38592C3.54779 4.10942 5.81024 5.22502 8.33615 5.3522C8.49252 5.36007 8.64354 5.29425 8.74422 5.17434C8.84489 5.05444 8.88359 4.8943 8.84877 4.74165C8.80402 4.54542 8.78009 4.34316 8.78009 4.13557C8.78009 2.66983 9.9679 1.4823 11.432 1.4823C12.9841 1.4823 14.0947 2.91635 14.0947 4.50097C14.0947 8.45152 11.091 12.9695 5.62553 12.9695Z" fill="black"/>
</svg>
