<svg width="18" height="18" viewBox="0 0 18 18" fill="none" xmlns="http://www.w3.org/2000/svg">
<path fill-rule="evenodd" clip-rule="evenodd" d="M8.9992 0.800049C4.19563 0.800049 0.300003 4.69516 0.300003 9.50034C0.300003 13.3436 2.79259 16.6047 6.24973 17.7557C6.68501 17.8353 6.84363 17.5666 6.84363 17.3359C6.84363 17.1292 6.83615 16.5823 6.83188 15.8565C4.41194 16.382 3.90135 14.69 3.90135 14.69C3.50559 13.6849 2.93519 13.4173 2.93519 13.4173C2.14528 12.8779 2.99501 12.8886 2.99501 12.8886C3.86824 12.95 4.32755 13.7853 4.32755 13.7853C5.10358 15.1147 6.36402 14.7306 6.85965 14.5079C6.9387 13.9461 7.16355 13.5626 7.4119 13.3452C5.48011 13.1252 3.44898 12.3791 3.44898 9.04529C3.44898 8.09515 3.78813 7.31913 4.34464 6.7108C4.25492 6.49076 3.95636 5.6063 4.4301 4.40834C4.4301 4.40834 5.16019 4.17441 6.82227 5.29973C7.51604 5.10692 8.26056 5.01079 9.00027 5.00705C9.73945 5.01079 10.4834 5.10692 11.1783 5.29973C12.8393 4.17441 13.5683 4.40834 13.5683 4.40834C14.0431 5.6063 13.7446 6.49076 13.6554 6.7108C14.213 7.31913 14.5494 8.09515 14.5494 9.04529C14.5494 12.3876 12.5151 13.123 10.5774 13.3383C10.8893 13.6069 11.1676 14.1378 11.1676 14.9496C11.1676 16.1123 11.1569 17.0507 11.1569 17.3359C11.1569 17.5688 11.3139 17.8396 11.7551 17.7546C15.2096 16.6015 17.7 13.3431 17.7 9.50034C17.7 4.69516 13.8044 0.800049 8.9992 0.800049Z" fill="black"/>
</svg>
