<svg width="18" height="18" viewBox="0 0 18 18" fill="none" xmlns="http://www.w3.org/2000/svg">
<path fill-rule="evenodd" clip-rule="evenodd" d="M8.99919 0.799988C4.19561 0.799988 0.299988 4.6951 0.299988 9.50028C0.299988 13.3436 2.79257 16.6047 6.24971 17.7556C6.68499 17.8352 6.84361 17.5666 6.84361 17.3359C6.84361 17.1292 6.83614 16.5822 6.83187 15.8564C4.41192 16.382 3.90133 14.69 3.90133 14.69C3.50558 13.6848 2.93517 13.4173 2.93517 13.4173C2.14526 12.8778 2.99499 12.8885 2.99499 12.8885C3.86822 12.9499 4.32753 13.7852 4.32753 13.7852C5.10356 15.1146 6.36401 14.7306 6.85964 14.5079C6.93868 13.946 7.16353 13.5625 7.41188 13.3451C5.48009 13.1251 3.44897 12.379 3.44897 9.04523C3.44897 8.09509 3.78811 7.31907 4.34463 6.71074C4.2549 6.4907 3.95635 5.60623 4.43008 4.40828C4.43008 4.40828 5.16017 4.17435 6.82225 5.29967C7.51603 5.10686 8.26055 5.01073 9.00026 5.00699C9.73943 5.01073 10.4834 5.10686 11.1783 5.29967C12.8393 4.17435 13.5683 4.40828 13.5683 4.40828C14.0431 5.60623 13.7445 6.4907 13.6554 6.71074C14.2129 7.31907 14.5494 8.09509 14.5494 9.04523C14.5494 12.3875 12.5151 13.123 10.5774 13.3382C10.8893 13.6069 11.1676 14.1377 11.1676 14.9495C11.1676 16.1123 11.1569 17.0507 11.1569 17.3359C11.1569 17.5687 11.3139 17.8395 11.7551 17.7546C15.2095 16.6015 17.7 13.343 17.7 9.50028C17.7 4.6951 13.8044 0.799988 8.99919 0.799988" fill="black"/>
</svg>
